<svg width="121" height="121" viewBox="0 0 121 121" fill="none" xmlns="http://www.w3.org/2000/svg">
<path fill-rule="evenodd" clip-rule="evenodd" d="M27.6382 63.4031C22.2941 56.1729 20.2485 46.8719 19.4615 41.4293C22.4268 41.7227 26.1899 42.4637 30.1047 43.7589C35.5681 45.5665 41.0423 48.3604 44.9665 52.2301C49.7848 56.9815 52.6079 61.2521 54.3781 64.6732C55.6808 67.1907 56.3766 69.1336 56.9533 70.7438C57.1155 71.1968 57.2683 71.6234 57.4225 72.0291V79.0494C53.5651 78.3493 48.5956 76.9597 43.651 74.8358C37.2283 72.077 31.2077 68.2325 27.6382 63.4031ZM48.8954 48.2459C44.1457 43.5623 37.7995 40.411 31.8623 38.4466C25.9282 36.4834 20.1183 35.6127 16.2397 35.6903L13.2344 35.7504L13.5096 38.7437C13.8878 42.8568 15.512 56.4109 23.1384 66.729C27.5555 72.7051 34.6143 77.044 41.4427 79.9771C47.395 82.5338 57.8584 85.1122 60.5217 85.1122C63.314 85.1109 73.605 82.538 79.5573 79.9813C86.3857 77.0482 93.4445 72.7093 97.8616 66.7332C105.488 56.4151 107.112 42.861 107.49 38.7479L107.766 35.7546L104.76 35.6945C100.882 35.6169 95.0718 36.4876 89.1377 38.4508C83.2005 40.4152 76.8543 43.5665 72.1046 48.2501C66.851 53.4308 63.6823 58.1828 61.6523 62.1058C61.2232 62.935 60.8413 63.7384 60.5009 64.501C60.1601 63.7371 59.7776 62.9323 59.3477 62.1016C57.3177 58.1786 54.149 53.4266 48.8954 48.2459ZM93.3618 63.4073C98.7059 56.1771 100.751 46.8761 101.538 41.4335C98.5732 41.7269 94.8101 42.4679 90.8953 43.7631C85.4319 45.5707 79.9577 48.3646 76.0335 52.2343C71.2152 56.9857 68.3921 61.2563 66.6218 64.6774C65.3192 67.1949 64.6234 69.1378 64.0467 70.748C63.8845 71.201 63.7317 71.6276 63.5775 72.0333V79.0536C67.4349 78.3535 72.4044 76.9639 77.3489 74.84C83.7717 72.0812 89.7923 68.2367 93.3618 63.4073Z" fill="black"/>
</svg>
