<svg width="20" height="20" viewBox="0 0 20 20" fill="none" xmlns="http://www.w3.org/2000/svg">
  <g clip-path="url(#clip0_45_707)">
    <path fill-rule="evenodd" clip-rule="evenodd"
          d="M0.244078 4.41073C0.569515 4.0853 1.09715 4.0853 1.42259 4.41073L7.08333 10.0715L10.6607 6.49407C10.9862 6.16863 11.5138 6.16863 11.8393 6.49407L19.7559 14.4107C20.0814 14.7362 20.0814 15.2638 19.7559 15.5892C19.4305 15.9147 18.9028 15.9147 18.5774 15.5892L11.25 8.26184L7.67259 11.8392C7.34715 12.1647 6.81951 12.1647 6.49408 11.8392L0.244078 5.58925C-0.0813592 5.26381 -0.0813592 4.73617 0.244078 4.41073Z"
          fill="#FF4444"/>
    <path fill-rule="evenodd" clip-rule="evenodd"
          d="M19.1666 9.16666C19.6268 9.16666 19.9999 9.53975 19.9999 9.99999V15C19.9999 15.4602 19.6268 15.8333 19.1666 15.8333H14.1666C13.7063 15.8333 13.3333 15.4602 13.3333 15C13.3333 14.5398 13.7063 14.1667 14.1666 14.1667H18.3333V9.99999C18.3333 9.53975 18.7063 9.16666 19.1666 9.16666Z"
          fill="#FF4444"/>
  </g>
  <defs>
    <clipPath id="clip0_45_707">
      <rect width="20" height="20" fill="white"/>
    </clipPath>
  </defs>
</svg>
