<svg width="20" height="20" viewBox="0 0 20 20" fill="none" xmlns="http://www.w3.org/2000/svg">
  <g clip-path="url(#clip0_45_702)">
    <path fill-rule="evenodd" clip-rule="evenodd"
          d="M0.244078 15.5893C0.569515 15.9147 1.09715 15.9147 1.42259 15.5893L7.08333 9.92852L10.6607 13.5059C10.9862 13.8314 11.5138 13.8314 11.8393 13.5059L19.7559 5.58926C20.0814 5.26383 20.0814 4.73619 19.7559 4.41075C19.4305 4.08532 18.9028 4.08532 18.5774 4.41075L11.25 11.7382L7.67259 8.16075C7.34715 7.83532 6.81951 7.83532 6.49408 8.16075L0.244078 14.4108C-0.0813592 14.7362 -0.0813592 15.2638 0.244078 15.5893Z"
          fill="#00C851"/>
    <path fill-rule="evenodd" clip-rule="evenodd"
          d="M19.1666 10.8333C19.6268 10.8333 19.9999 10.4602 19.9999 10V5.00001C19.9999 4.53977 19.6268 4.16668 19.1666 4.16668H14.1666C13.7063 4.16668 13.3333 4.53977 13.3333 5.00001C13.3333 5.46025 13.7063 5.83334 14.1666 5.83334H18.3333V10C18.3333 10.4602 18.7063 10.8333 19.1666 10.8333Z"
          fill="#00C851"/>
  </g>
  <defs>
    <clipPath id="clip0_45_702">
      <rect width="20" height="20" fill="white" transform="matrix(1 0 0 -1 0 20)"/>
    </clipPath>
  </defs>
</svg>
